<mxfile host="app.diagrams.net" modified="2022-03-23T14:33:08.992Z" agent="5.0 (Macintosh; Intel Mac OS X 10_15_7) AppleWebKit/537.36 (KHTML, like Gecko) Chrome/99.0.4844.83 Safari/537.36" etag="SpHNcACwpbjPpyCaZnt-" version="17.1.3" type="github">
  <diagram id="J4wC34Yu5fieh8alF0eG" name="Page-1">
    <mxGraphModel dx="3569" dy="1764" grid="1" gridSize="10" guides="1" tooltips="1" connect="1" arrows="1" fold="1" page="1" pageScale="1" pageWidth="827" pageHeight="1169" math="0" shadow="0">
      <root>
        <mxCell id="0" />
        <mxCell id="1" parent="0" />
        <mxCell id="TM4qYt3Gy3iJOAzo3s-N-1" value="&lt;b&gt;Fronted&lt;/b&gt;" style="rounded=1;whiteSpace=wrap;html=1;fillColor=#fff2cc;strokeColor=#d6b656;" parent="1" vertex="1">
          <mxGeometry x="-580" y="430" width="130" height="50" as="geometry" />
        </mxCell>
        <mxCell id="TM4qYt3Gy3iJOAzo3s-N-10" value="" style="edgeStyle=orthogonalEdgeStyle;rounded=0;orthogonalLoop=1;jettySize=auto;html=1;fontSize=9;" parent="1" source="TM4qYt3Gy3iJOAzo3s-N-2" target="TM4qYt3Gy3iJOAzo3s-N-9" edge="1">
          <mxGeometry relative="1" as="geometry" />
        </mxCell>
        <mxCell id="TM4qYt3Gy3iJOAzo3s-N-2" value="&lt;b&gt;Backend&lt;/b&gt;" style="rounded=1;whiteSpace=wrap;html=1;fillColor=#fff2cc;strokeColor=#d6b656;" parent="1" vertex="1">
          <mxGeometry x="-580" y="680" width="130" height="50" as="geometry" />
        </mxCell>
        <mxCell id="TM4qYt3Gy3iJOAzo3s-N-6" value="" style="edgeStyle=orthogonalEdgeStyle;rounded=0;orthogonalLoop=1;jettySize=auto;html=1;" parent="1" source="TM4qYt3Gy3iJOAzo3s-N-3" target="TM4qYt3Gy3iJOAzo3s-N-5" edge="1">
          <mxGeometry relative="1" as="geometry" />
        </mxCell>
        <mxCell id="TM4qYt3Gy3iJOAzo3s-N-3" value="&lt;b&gt;DB&lt;/b&gt;" style="rounded=1;whiteSpace=wrap;html=1;fillColor=#fff2cc;strokeColor=#d6b656;" parent="1" vertex="1">
          <mxGeometry x="-580" y="910" width="130" height="50" as="geometry" />
        </mxCell>
        <mxCell id="TM4qYt3Gy3iJOAzo3s-N-5" value="&lt;font style=&quot;font-size: 9px&quot;&gt;migration scripts in progress&lt;/font&gt;" style="ellipse;whiteSpace=wrap;html=1;fillColor=#f8cecc;strokeColor=#b85450;rounded=1;" parent="1" vertex="1">
          <mxGeometry x="-360" y="913.75" width="95" height="42.5" as="geometry" />
        </mxCell>
        <mxCell id="TM4qYt3Gy3iJOAzo3s-N-12" value="" style="edgeStyle=orthogonalEdgeStyle;rounded=0;orthogonalLoop=1;jettySize=auto;html=1;fontSize=9;" parent="1" source="TM4qYt3Gy3iJOAzo3s-N-9" target="TM4qYt3Gy3iJOAzo3s-N-11" edge="1">
          <mxGeometry relative="1" as="geometry" />
        </mxCell>
        <mxCell id="TM4qYt3Gy3iJOAzo3s-N-9" value="migration with&lt;br&gt;strapi codemods" style="rounded=1;whiteSpace=wrap;html=1;strokeColor=default;" parent="1" vertex="1">
          <mxGeometry x="-410" y="685" width="110" height="40" as="geometry" />
        </mxCell>
        <mxCell id="TM4qYt3Gy3iJOAzo3s-N-18" value="" style="edgeStyle=orthogonalEdgeStyle;rounded=0;orthogonalLoop=1;jettySize=auto;html=1;fontSize=9;" parent="1" source="TM4qYt3Gy3iJOAzo3s-N-11" target="TM4qYt3Gy3iJOAzo3s-N-17" edge="1">
          <mxGeometry relative="1" as="geometry" />
        </mxCell>
        <mxCell id="TM4qYt3Gy3iJOAzo3s-N-11" value="moved files, upgraded dependencies" style="rounded=1;whiteSpace=wrap;html=1;strokeColor=default;" parent="1" vertex="1">
          <mxGeometry x="-260" y="685" width="130" height="40" as="geometry" />
        </mxCell>
        <mxCell id="TM4qYt3Gy3iJOAzo3s-N-16" value="" style="edgeStyle=orthogonalEdgeStyle;rounded=0;orthogonalLoop=1;jettySize=auto;html=1;fontSize=9;" parent="1" source="TM4qYt3Gy3iJOAzo3s-N-13" target="TM4qYt3Gy3iJOAzo3s-N-15" edge="1">
          <mxGeometry relative="1" as="geometry" />
        </mxCell>
        <mxCell id="TM4qYt3Gy3iJOAzo3s-N-13" value="error:&amp;nbsp;The key of the content-type should be the same as its singularName. Found rules and rule." style="rounded=1;whiteSpace=wrap;html=1;strokeColor=#b85450;fillColor=#f8cecc;" parent="1" vertex="1">
          <mxGeometry x="137" y="495" width="130" height="95" as="geometry" />
        </mxCell>
        <mxCell id="TM4qYt3Gy3iJOAzo3s-N-15" value="seems like fixed changing the name of the folders in the &lt;b&gt;api/ &lt;/b&gt;from plural to singular&lt;b&gt;&amp;nbsp;&lt;/b&gt;(e.g. ambassadors/ -&amp;gt;ambassador/)" style="whiteSpace=wrap;html=1;rounded=1;fillColor=#d5e8d4;strokeColor=#82b366;" parent="1" vertex="1">
          <mxGeometry x="307" y="490" width="260" height="105" as="geometry" />
        </mxCell>
        <mxCell id="TM4qYt3Gy3iJOAzo3s-N-19" style="edgeStyle=orthogonalEdgeStyle;rounded=0;orthogonalLoop=1;jettySize=auto;html=1;exitX=1;exitY=0.5;exitDx=0;exitDy=0;entryX=0;entryY=0.5;entryDx=0;entryDy=0;fontSize=9;" parent="1" source="TM4qYt3Gy3iJOAzo3s-N-17" target="TM4qYt3Gy3iJOAzo3s-N-13" edge="1">
          <mxGeometry relative="1" as="geometry" />
        </mxCell>
        <mxCell id="TM4qYt3Gy3iJOAzo3s-N-21" style="edgeStyle=orthogonalEdgeStyle;rounded=0;orthogonalLoop=1;jettySize=auto;html=1;exitX=1;exitY=0.5;exitDx=0;exitDy=0;entryX=0;entryY=0.5;entryDx=0;entryDy=0;fontSize=9;" parent="1" source="TM4qYt3Gy3iJOAzo3s-N-17" target="TM4qYt3Gy3iJOAzo3s-N-20" edge="1">
          <mxGeometry relative="1" as="geometry" />
        </mxCell>
        <mxCell id="TM4qYt3Gy3iJOAzo3s-N-23" style="edgeStyle=orthogonalEdgeStyle;rounded=0;orthogonalLoop=1;jettySize=auto;html=1;exitX=1;exitY=0.5;exitDx=0;exitDy=0;entryX=0;entryY=0.5;entryDx=0;entryDy=0;fontSize=9;" parent="1" source="TM4qYt3Gy3iJOAzo3s-N-17" target="TM4qYt3Gy3iJOAzo3s-N-22" edge="1">
          <mxGeometry relative="1" as="geometry" />
        </mxCell>
        <mxCell id="TM4qYt3Gy3iJOAzo3s-N-17" value="trying to start up the server" style="rounded=1;whiteSpace=wrap;html=1;strokeColor=default;" parent="1" vertex="1">
          <mxGeometry x="-90" y="685" width="130" height="40" as="geometry" />
        </mxCell>
        <mxCell id="TM4qYt3Gy3iJOAzo3s-N-20" value="custom routes, error due to absence of the &lt;b&gt;content-type&lt;/b&gt; directory (we can&#39;t add it for these routes since they will be displayed in the admin panel)" style="rounded=1;whiteSpace=wrap;html=1;strokeColor=#b85450;fillColor=#f8cecc;" parent="1" vertex="1">
          <mxGeometry x="137" y="657.5" width="200" height="95" as="geometry" />
        </mxCell>
        <mxCell id="TM4qYt3Gy3iJOAzo3s-N-22" value="&lt;b&gt;server.js&lt;/b&gt; file asks for the&amp;nbsp;&lt;span style=&quot;color: rgb(195 , 232 , 141) ; background-color: rgb(33 , 33 , 33) ; font-family: &amp;#34;menlo&amp;#34; , monospace ; font-size: 9pt&quot;&gt;APP_KEYS&lt;/span&gt;&lt;span&gt;&amp;nbsp;, not sure yet what is it&lt;/span&gt;" style="rounded=1;whiteSpace=wrap;html=1;strokeColor=#b85450;fillColor=#f8cecc;" parent="1" vertex="1">
          <mxGeometry x="137" y="810" width="203" height="60" as="geometry" />
        </mxCell>
        <mxCell id="NqFNBmfVTFr_jz8jvUrK-4" value="" style="edgeStyle=orthogonalEdgeStyle;rounded=0;orthogonalLoop=1;jettySize=auto;html=1;fontSize=20;exitX=0.5;exitY=1;exitDx=0;exitDy=0;" edge="1" parent="1" source="NqFNBmfVTFr_jz8jvUrK-1" target="NqFNBmfVTFr_jz8jvUrK-3">
          <mxGeometry relative="1" as="geometry" />
        </mxCell>
        <mxCell id="NqFNBmfVTFr_jz8jvUrK-6" style="edgeStyle=orthogonalEdgeStyle;rounded=0;orthogonalLoop=1;jettySize=auto;html=1;exitX=0.5;exitY=1;exitDx=0;exitDy=0;entryX=0.5;entryY=0;entryDx=0;entryDy=0;fontSize=18;" edge="1" parent="1" source="NqFNBmfVTFr_jz8jvUrK-1" target="NqFNBmfVTFr_jz8jvUrK-5">
          <mxGeometry relative="1" as="geometry" />
        </mxCell>
        <mxCell id="NqFNBmfVTFr_jz8jvUrK-1" value="&lt;b&gt;&lt;font style=&quot;font-size: 20px&quot;&gt;Strapi v3 to v4 migration&lt;/font&gt;&lt;/b&gt;" style="rounded=1;whiteSpace=wrap;html=1;" vertex="1" parent="1">
          <mxGeometry x="630" y="40" width="330" height="60" as="geometry" />
        </mxCell>
        <mxCell id="NqFNBmfVTFr_jz8jvUrK-3" value="&lt;font style=&quot;font-size: 18px&quot;&gt;Migrate from v3 to v4&lt;/font&gt;" style="whiteSpace=wrap;html=1;rounded=1;" vertex="1" parent="1">
          <mxGeometry x="-170" y="220" width="190" height="60" as="geometry" />
        </mxCell>
        <mxCell id="NqFNBmfVTFr_jz8jvUrK-5" value="&lt;span style=&quot;font-size: 18px&quot;&gt;From scratch with v4&lt;/span&gt;" style="whiteSpace=wrap;html=1;rounded=1;" vertex="1" parent="1">
          <mxGeometry x="1370" y="220" width="190" height="60" as="geometry" />
        </mxCell>
      </root>
    </mxGraphModel>
  </diagram>
</mxfile>
